# Blender 4.2.3 LTS
# www.blender.org
mtllib ship.mtl
o Cube
v -1.212942 -0.146265 -1.000000
v -1.994638 0.548117 1.000000
v -2.316500 -0.642210 1.000000
v -2.317617 0.548117 -2.336309
v -2.317617 0.357790 -1.556641
v -1.548355 0.426212 -0.876652
v -1.528638 0.362736 -0.804077
v -1.119913 -0.135897 -0.137820
v -2.317617 -0.142210 -1.000000
v 2.894018 -1.008076 -7.179132
v 1.278452 -0.434977 -2.983530
v 0.697439 -0.442740 -2.876801
v -0.515272 -0.708255 -1.355899
v -1.152558 -0.283817 -0.236445
v -0.620029 -0.440776 -0.170773
v 0.314585 1.968246 -3.867821
v -0.829960 -1.221096 0.922762
v -0.256339 -0.169355 -0.865075
v -0.659825 0.675484 -0.838898
v -0.624930 0.253574 -1.272423
v 0.461285 -0.682967 -2.843938
v -1.994638 1.295321 -1.000000
v -1.994638 0.548199 1.000000
v -2.307936 1.295321 -1.000000
v -1.561910 0.404657 -0.752045
v -1.579583 0.459475 -0.811539
v -1.994638 1.295321 -1.000000
v -1.994638 0.548199 1.000000
v -2.307936 1.295321 -1.000000
v -1.994638 1.295321 -1.000000
v -1.994638 0.548199 1.000000
v -2.307936 1.295321 -1.000000
v -1.994638 1.295321 -1.000000
v -1.994638 0.548199 1.000000
v -2.307936 1.295321 -1.000000
v -1.603790 0.200926 0.000000
v -1.994638 0.921760 0.000000
v -1.603790 0.574528 -1.000000
v -1.994638 0.548158 1.000000
v -1.799214 0.561343 0.000000
v -0.663229 0.355185 -0.655359
v -0.682946 0.418661 -0.727935
v -0.714174 0.451924 -0.662821
v -0.696501 0.397105 -0.603327
v -1.742280 0.726509 -1.102910
v -1.719699 0.633549 -1.153974
v -1.700671 0.662024 -1.090722
v -0.334448 -0.340441 -1.863286
v -0.311867 -0.433400 -1.914350
v -0.292839 -0.404926 -1.851097
v -2.156764 0.284758 2.758713
v -2.075701 0.416479 1.879357
v -2.035169 0.482339 1.439678
v -2.014904 0.515269 1.219839
v -2.004771 0.531734 1.109920
v -2.020570 0.674002 1.080018
v -2.317617 -0.332224 2.643269
v -2.317617 -0.642210 1.000000
v -2.317617 0.548117 1.000000
v -2.317617 1.295321 -1.000000
v -2.317617 0.021124 4.511074
v -2.317617 0.548158 1.000000
v -2.317617 0.023386 4.503614
v -2.317617 0.021150 4.512483
v -2.317617 1.295321 -1.000000
v -2.317617 0.548158 1.000000
v -2.317617 1.295321 -1.000000
v -2.317617 0.548158 1.000000
v -2.317617 1.295321 -1.000000
v -2.317617 0.548158 1.000000
v -2.317617 0.023386 4.503614
v -3.422292 -0.146265 -1.000000
v -2.640596 0.548117 1.000000
v -2.318733 -0.642210 1.000000
v -3.086879 0.426212 -0.876652
v -3.106596 0.362736 -0.804077
v -3.515321 -0.135897 -0.137820
v -7.529252 -1.008076 -7.179132
v -5.913686 -0.434977 -2.983530
v -5.332673 -0.442740 -2.876801
v -4.119962 -0.708255 -1.355899
v -3.482676 -0.283817 -0.236445
v -4.015204 -0.440776 -0.170773
v -4.949819 1.968246 -3.867821
v -3.805274 -1.221096 0.922762
v -4.378895 -0.169355 -0.865075
v -3.975409 0.675484 -0.838898
v -4.010303 0.253574 -1.272423
v -5.096519 -0.682967 -2.843938
v -2.640596 1.295321 -1.000000
v -2.640596 0.548199 1.000000
v -2.327298 1.295321 -1.000000
v -3.073324 0.404657 -0.752045
v -3.055651 0.459475 -0.811539
v -2.640596 1.295321 -1.000000
v -2.640596 0.548199 1.000000
v -2.327298 1.295321 -1.000000
v -2.640596 1.295321 -1.000000
v -2.640596 0.548199 1.000000
v -2.327298 1.295321 -1.000000
v -2.640596 1.295321 -1.000000
v -2.640596 0.548199 1.000000
v -2.327298 1.295321 -1.000000
v -3.031444 0.200926 0.000000
v -2.640596 0.921760 0.000000
v -3.031444 0.574528 -1.000000
v -2.640596 0.548158 1.000000
v -2.836020 0.561343 0.000000
v -3.972005 0.355185 -0.655359
v -3.952288 0.418661 -0.727935
v -3.921060 0.451924 -0.662821
v -3.938733 0.397105 -0.603327
v -2.892954 0.726509 -1.102910
v -2.915535 0.633549 -1.153974
v -2.934563 0.662024 -1.090722
v -4.300786 -0.340441 -1.863286
v -4.323367 -0.433400 -1.914350
v -4.342395 -0.404926 -1.851097
v -2.478470 0.284758 2.758713
v -2.559533 0.416479 1.879357
v -2.600065 0.482339 1.439678
v -2.620330 0.515269 1.219839
v -2.630463 0.531734 1.109920
v -2.614664 0.674002 1.080018
vn 0.9958 -0.0009 0.0917
vn -0.0000 -0.0000 -1.0000
vn 0.0027 0.7439 0.6682
vn -0.0000 0.9701 0.2425
vn -0.6143 0.7753 -0.1467
vn 0.7928 0.4299 -0.4320
vn -0.3080 -0.9242 -0.2256
vn -0.0409 0.9877 -0.1507
vn 0.8342 -0.5451 -0.0835
vn -0.8269 0.5617 -0.0263
vn -0.8637 -0.2992 -0.4056
vn -0.0013 0.9841 0.1774
vn 0.6632 0.4398 0.6056
vn 0.3731 -0.8305 -0.4136
vn -0.0343 -0.8281 -0.5595
vn 0.6273 -0.6672 0.4016
vn -0.9817 -0.1569 0.1078
vn 0.1811 -0.0436 0.9825
vn 0.3199 -0.9144 0.2481
vn -1.0000 -0.0000 -0.0000
vn -0.0000 1.0000 -0.0000
vn -0.0000 0.9368 0.3499
vn -0.1126 0.7139 0.6912
vn 0.8655 0.4693 0.1753
vn 0.9814 -0.0000 0.1919
vn 0.1089 -0.7334 -0.6710
vn 0.0805 0.9028 -0.4226
vn -0.1070 -0.8065 0.5814
vn 0.6776 0.5330 0.5067
vn 0.7928 0.4300 -0.4320
vn -0.3572 -0.8068 0.4706
vn -0.1338 0.4520 -0.8819
vn -0.6900 -0.6210 -0.3720
vn 0.9850 0.1326 0.1107
vn 0.0594 0.9981 -0.0184
vn -0.0000 0.8728 -0.4880
vn -0.9958 -0.0002 0.0918
vn -0.0027 0.7439 0.6682
vn 0.6143 0.7753 -0.1467
vn -0.7928 0.4299 -0.4320
vn 0.3080 -0.9242 -0.2256
vn 0.0409 0.9877 -0.1507
vn -0.8342 -0.5451 -0.0835
vn 0.8269 0.5617 -0.0263
vn 0.8637 -0.2992 -0.4056
vn 0.0013 0.9841 0.1774
vn -0.6632 0.4398 0.6056
vn -0.3731 -0.8305 -0.4136
vn 0.0343 -0.8281 -0.5595
vn -0.6273 -0.6672 0.4016
vn 0.9817 -0.1569 0.1078
vn -0.1811 -0.0436 0.9825
vn -0.3199 -0.9144 0.2481
vn 1.0000 -0.0000 -0.0000
vn 0.1126 0.7139 0.6912
vn -0.8655 0.4693 0.1753
vn -0.1089 -0.7334 -0.6710
vn -0.0805 0.9028 -0.4226
vn 0.1070 -0.8065 0.5814
vn -0.6776 0.5330 0.5067
vn 0.3572 -0.8068 0.4706
vn 0.1338 0.4520 -0.8819
vn 0.6900 -0.6210 -0.3720
vn -0.9850 0.1326 0.1107
vn -0.0594 0.9981 -0.0184
vn 0.8469 0.5089 0.1543
vn -0.1839 0.9810 0.0613
vn 0.8468 0.5090 0.1543
vn 0.9487 -0.0000 -0.3162
vn 0.9958 -0.0000 0.0919
vn 0.8944 -0.0000 0.4472
vn 0.9958 -0.0000 0.0920
vn -0.0001 -0.9890 -0.1481
vn 0.0036 0.9701 0.2425
vn 0.0984 -0.6820 -0.7247
vn 0.1229 0.6353 -0.7624
vn 0.9835 -0.1475 -0.1044
vn 0.2019 0.8717 0.4465
vn 0.0520 0.9932 -0.1040
vn -0.6372 0.6634 -0.3923
vn 0.3093 -0.8025 -0.5102
vn -0.0000 0.9368 0.3500
vn -0.0001 0.9368 0.3500
vn 0.8821 -0.4411 0.1654
vn 0.0592 0.9981 -0.0184
vn -0.8469 0.5089 0.1543
vn 0.3152 0.9457 0.0788
vn -0.8468 0.5090 0.1543
vn -0.6287 -0.7544 -0.1886
vn -0.9958 -0.0000 0.0919
vn -0.5295 0.7943 0.2979
vn 0.0001 -0.9890 -0.1481
vn -0.0036 0.9701 0.2425
vn -0.0984 -0.6820 -0.7247
vn -0.1229 0.6353 -0.7624
vn -0.2019 0.8717 0.4465
vn -0.9835 -0.1475 -0.1044
vn -0.0520 0.9932 -0.1040
vn 0.6372 0.6634 -0.3923
vn -0.3093 -0.8025 -0.5102
vn -1.0000 -0.0000 0.0001
vn 0.0001 0.9368 0.3500
vn -0.9814 -0.0000 0.1919
vn -0.0592 0.9981 -0.0184
vt 0.625000 0.750000
vt 0.605469 0.726562
vt 0.312500 0.375000
vt 0.312965 0.375558
vt 0.000000 0.000000
vt 0.625000 0.500000
vt 0.000720 0.000576
vt 0.582569 0.466055
vt 0.576868 0.461495
vt 0.625000 0.625000
vt 0.625000 0.530994
vt 0.625000 0.523558
vt 0.625000 0.524490
vt 0.625000 0.515418
vt 0.552985 0.442388
vt 0.585938 0.703125
vt 0.546875 0.656250
vt 0.002454 0.002945
vt 0.468750 0.562500
vt 0.002454 0.002945
s 0
usemtl Material
f 39/1/1 55/2/1 51/3/1
f 62/4/2 39/1/2 2/1/2
f 9/5/3 1/5/3 5/5/3
f 3/5/4 9/5/4 58/5/4
f 1/6/5 57/5/5 61/7/5
f 22/6/6 47/8/6 45/9/6
f 1/5/7 5/5/7 4/5/7
f 12/5/8 11/5/8 10/5/8
f 19/5/9 8/5/9 1/5/9
f 19/5/10 16/5/10 1/5/10
f 19/5/11 16/5/11 17/5/11
f 1/5/12 14/5/12 18/5/12
f 1/5/13 13/5/13 12/5/13
f 1/5/14 16/5/14 20/5/14
f 17/5/15 20/5/15 16/5/15
f 13/5/16 10/5/16 18/5/16
f 1/5/17 17/5/17 8/5/17
f 12/5/18 21/5/18 11/5/18
f 10/5/19 11/5/19 21/5/19
f 27/6/20 28/1/20 37/10/20
f 29/5/21 22/6/21 24/5/21
f 65/5/21 24/5/21 60/5/21
f 30/6/21 28/1/21 27/6/21
f 32/5/21 27/6/21 29/5/21
f 67/5/21 29/5/21 65/5/21
f 33/6/21 31/1/21 30/6/21
f 35/5/21 30/6/21 32/5/21
f 69/5/21 32/5/21 67/5/21
f 23/5/22 33/5/22 35/5/22
f 25/11/23 43/12/23 26/12/23
f 7/13/24 36/10/24 1/6/24
f 2/1/25 40/10/25 39/1/25
f 26/12/24 38/6/24 40/10/24
f 38/5/24 22/5/24 39/5/24
f 41/13/24 43/12/24 44/11/24
f 7/13/26 42/14/26 41/13/26
f 6/14/27 43/12/27 42/14/27
f 7/13/28 44/11/28 25/11/28
f 49/15/6 48/9/6 50/8/6
f 47/8/29 48/9/29 45/9/29
f 46/15/30 38/6/30 4/5/30
f 46/15/31 50/8/31 47/8/31
f 46/15/32 48/9/32 49/15/32
f 10/5/33 13/5/33 1/5/33
f 54/16/34 56/5/34 53/17/34
f 34/1/21 68/4/21 31/1/21
f 31/1/21 66/4/21 28/1/21
f 28/1/21 62/4/21 23/1/21
f 61/7/35 8/5/35 1/6/35
f 4/5/36 24/5/36 22/6/36
f 119/3/37 123/2/37 73/1/37
f 73/1/2 107/1/2 62/4/2
f 9/5/38 5/5/38 72/5/38
f 9/5/4 74/5/4 58/5/4
f 57/5/39 72/6/39 61/7/39
f 113/9/40 106/6/40 90/6/40
f 72/5/41 4/5/41 5/5/41
f 80/5/42 78/5/42 79/5/42
f 77/5/43 87/5/43 72/5/43
f 87/5/44 72/5/44 84/5/44
f 87/5/45 85/5/45 84/5/45
f 86/5/46 82/5/46 72/5/46
f 80/5/47 81/5/47 72/5/47
f 72/5/48 88/5/48 84/5/48
f 88/5/49 85/5/49 84/5/49
f 81/5/50 86/5/50 78/5/50
f 72/5/51 77/5/51 85/5/51
f 80/5/52 79/5/52 89/5/52
f 78/5/53 89/5/53 79/5/53
f 95/6/54 105/10/54 96/1/54
f 97/5/21 90/6/21 95/6/21
f 65/5/21 92/5/21 97/5/21
f 98/6/21 96/1/21 99/1/21
f 100/5/21 95/6/21 98/6/21
f 67/5/21 97/5/21 100/5/21
f 101/6/21 99/1/21 102/1/21
f 103/5/21 98/6/21 101/6/21
f 69/5/21 100/5/21 103/5/21
f 103/5/22 101/5/22 91/5/22
f 111/12/55 93/11/55 94/12/55
f 72/6/56 93/11/56 76/13/56
f 73/1/56 108/10/56 104/10/56
f 108/10/56 106/6/56 94/12/56
f 108/5/56 90/5/56 106/5/56
f 109/13/56 111/12/56 110/14/56
f 76/13/57 110/14/57 75/14/57
f 75/14/58 111/12/58 94/12/58
f 112/11/59 76/13/59 93/11/59
f 117/15/40 118/8/40 116/9/40
f 116/9/60 115/8/60 113/9/60
f 114/15/40 72/6/40 115/8/40
f 118/8/61 114/15/61 115/8/61
f 114/15/62 116/9/62 113/9/62
f 78/5/63 72/5/63 81/5/63
f 122/16/64 124/5/64 123/2/64
f 102/1/21 68/4/21 70/4/21
f 99/1/21 66/4/21 68/4/21
f 96/1/21 62/4/21 66/4/21
f 77/5/65 61/7/65 72/6/65
f 92/5/36 4/5/36 90/6/36
f 71/18/66 61/7/66 1/6/66
f 71/18/66 1/6/66 36/10/66
f 53/17/67 52/19/67 51/3/67
f 51/3/66 71/18/66 36/10/66
f 51/3/68 36/10/68 2/1/68
f 54/16/69 53/17/69 51/3/69
f 39/1/70 23/1/70 55/2/70
f 55/2/71 54/16/71 51/3/71
f 51/3/72 2/1/72 39/1/72
f 2/1/73 63/20/73 62/4/73
f 62/4/2 23/1/2 39/1/2
f 3/5/74 1/5/74 9/5/74
f 1/6/5 3/5/5 57/5/5
f 46/15/6 4/5/6 22/6/6
f 22/6/6 38/6/6 47/8/6
f 45/9/6 46/15/6 22/6/6
f 19/5/75 17/5/75 8/5/75
f 18/5/76 13/5/76 1/5/76
f 1/5/77 8/5/77 14/5/77
f 14/5/78 15/5/78 18/5/78
f 12/5/79 10/5/79 1/5/79
f 13/5/80 18/5/80 12/5/80
f 17/5/81 1/5/81 20/5/81
f 28/1/21 23/1/21 37/10/21
f 37/10/21 22/6/21 27/6/21
f 29/5/21 27/6/21 22/6/21
f 65/5/21 29/5/21 24/5/21
f 30/6/21 31/1/21 28/1/21
f 32/5/21 30/6/21 27/6/21
f 67/5/21 32/5/21 29/5/21
f 33/6/21 34/1/21 31/1/21
f 35/5/21 33/6/21 30/6/21
f 69/5/21 35/5/21 32/5/21
f 35/5/82 69/5/82 62/5/82
f 23/5/54 39/5/54 33/5/54
f 35/5/83 62/5/83 23/5/83
f 25/11/23 44/11/23 43/12/23
f 1/6/24 38/6/24 6/14/24
f 7/13/24 25/11/24 36/10/24
f 1/6/24 6/14/24 7/13/24
f 2/1/24 36/10/24 40/10/24
f 40/10/24 36/10/24 25/11/24
f 26/12/24 6/14/24 38/6/24
f 40/10/24 25/11/24 26/12/24
f 39/5/84 40/5/84 38/5/84
f 22/5/21 27/5/21 30/5/21
f 22/5/21 30/5/21 33/5/21
f 22/5/21 33/5/21 39/5/21
f 41/13/24 42/14/24 43/12/24
f 7/13/26 6/14/26 42/14/26
f 6/14/27 26/12/27 43/12/27
f 7/13/28 41/13/28 44/11/28
f 47/8/29 50/8/29 48/9/29
f 46/15/6 47/8/6 38/6/6
f 38/6/6 1/6/6 4/5/6
f 46/15/31 49/15/31 50/8/31
f 46/15/32 45/9/32 48/9/32
f 54/16/34 55/2/34 56/5/34
f 34/1/21 70/4/21 68/4/21
f 31/1/21 68/4/21 66/4/21
f 28/1/21 66/4/21 62/4/21
f 61/7/85 64/5/85 8/5/85
f 4/5/36 60/5/36 24/5/36
f 72/6/86 61/7/86 71/18/86
f 119/3/87 120/19/87 121/17/87
f 72/6/86 71/18/86 119/3/86
f 104/10/88 72/6/88 119/3/88
f 119/3/89 121/17/89 122/16/89
f 123/2/90 91/1/90 107/1/90
f 119/3/91 122/16/91 123/2/91
f 73/1/88 104/10/88 119/3/88
f 123/2/90 107/1/90 73/1/90
f 62/4/92 63/20/92 73/1/92
f 107/1/2 91/1/2 62/4/2
f 9/5/93 72/5/93 74/5/93
f 57/5/39 74/5/39 72/6/39
f 90/6/40 4/5/40 114/15/40
f 113/9/40 115/8/40 106/6/40
f 90/6/40 114/15/40 113/9/40
f 77/5/94 85/5/94 87/5/94
f 72/5/95 81/5/95 86/5/95
f 86/5/96 83/5/96 82/5/96
f 82/5/97 77/5/97 72/5/97
f 72/5/98 78/5/98 80/5/98
f 80/5/99 86/5/99 81/5/99
f 88/5/100 72/5/100 85/5/100
f 95/6/21 90/6/21 105/10/21
f 105/10/21 91/1/21 96/1/21
f 97/5/21 92/5/21 90/6/21
f 65/5/21 60/5/21 92/5/21
f 98/6/21 95/6/21 96/1/21
f 100/5/21 97/5/21 95/6/21
f 67/5/21 65/5/21 97/5/21
f 101/6/21 98/6/21 99/1/21
f 103/5/21 100/5/21 98/6/21
f 69/5/21 67/5/21 100/5/21
f 62/5/82 69/5/82 103/5/82
f 101/5/101 107/5/101 91/5/101
f 91/5/102 62/5/102 103/5/102
f 111/12/55 112/11/55 93/11/55
f 75/14/56 106/6/56 72/6/56
f 72/6/56 104/10/56 93/11/56
f 76/13/56 75/14/56 72/6/56
f 73/1/103 107/1/103 108/10/103
f 93/11/56 104/10/56 108/10/56
f 106/6/56 75/14/56 94/12/56
f 94/12/56 93/11/56 108/10/56
f 108/5/56 107/5/56 101/5/56
f 98/5/21 95/5/21 90/5/21
f 101/5/21 98/5/21 90/5/21
f 108/5/21 101/5/21 90/5/21
f 109/13/56 112/11/56 111/12/56
f 76/13/57 109/13/57 110/14/57
f 75/14/58 110/14/58 111/12/58
f 112/11/59 109/13/59 76/13/59
f 116/9/60 118/8/60 115/8/60
f 114/15/40 4/5/40 72/6/40
f 72/6/40 106/6/40 115/8/40
f 118/8/61 117/15/61 114/15/61
f 114/15/62 117/15/62 116/9/62
f 122/16/64 121/17/64 124/5/64
f 102/1/21 99/1/21 68/4/21
f 99/1/21 96/1/21 66/4/21
f 96/1/21 91/1/21 62/4/21
f 77/5/104 64/5/104 61/7/104
f 92/5/36 60/5/36 4/5/36
l 2 59
l 73 59